<?xml version="1.0" encoding="UTF-8"?>
<svg id="Layer_1" data-name="Layer 1" xmlns="http://www.w3.org/2000/svg" viewBox="0 0 180 180">
  <defs>
    <style>
      .cls-1 {
        fill: #fff;
      }
    </style>
  </defs>
  <path class="cls-1" d="M127.7,0H61.75c-16.01,0-29.04,13.03-29.04,29.04V93.93l-10.01-.02h0c-2.91,0-5.27,2.36-5.28,5.27,0,2.92,2.35,5.28,5.27,5.29l10.03,.02v51.48c0,13.25,10.78,24.04,24.04,24.04h29.12c2.91,0,5.28-2.36,5.28-5.28s-2.36-5.28-5.28-5.28h-9.97V104.56l18.42,.03h33.4c28.84,0,52.3-23.46,52.3-52.3S156.54,0,127.7,0ZM43.26,29.04c0-10.19,8.29-18.49,18.49-18.49h3.58V93.99l-22.07-.04V29.04Zm22.07,140.4h-8.59c-7.43,0-13.48-6.05-13.48-13.48v-51.46l22.07,.04v64.9ZM75.89,10.56h19.19c11.28,0,21.85,4.43,29.76,12.48,7.91,8.04,12.16,18.69,11.97,29.98-.38,22.62-19.45,41.03-42.5,41.03l-18.43-.03V10.56Zm51.82,83.48h-1.58c12.65-9.4,20.97-24.21,21.25-40.85,.24-14.14-5.09-27.48-15-37.56-1.82-1.85-3.75-3.54-5.77-5.07h1.11c23.02,0,41.74,18.73,41.74,41.74s-18.72,41.74-41.74,41.74Z"/>
  <circle class="cls-1" cx="5.31" cy="99.19" r="5.31"/>
</svg>